<mxfile host="app.diagrams.net" modified="2024-07-23T02:15:27.627Z" agent="Mozilla/5.0 (Macintosh; Intel Mac OS X 10_15_7) AppleWebKit/537.36 (KHTML, like Gecko) Chrome/126.0.0.0 Safari/537.36" etag="6fQRcZTi-Qyna3S3nIDs" version="24.7.3" type="github" pages="9">
  <diagram id="1ibXJEjT5v1Qtc3Ci-ZA" name="灰度部署">
    <mxGraphModel dx="946" dy="548" grid="1" gridSize="10" guides="1" tooltips="1" connect="1" arrows="1" fold="1" page="1" pageScale="1" pageWidth="827" pageHeight="1169" math="0" shadow="0">
      <root>
        <mxCell id="0" />
        <mxCell id="1" parent="0" />
        <mxCell id="LKj5p6A1wOPdXeghBESK-13" value="" style="rounded=0;whiteSpace=wrap;html=1;dashed=1;" parent="1" vertex="1">
          <mxGeometry x="110" y="30" width="510" height="450" as="geometry" />
        </mxCell>
        <mxCell id="LKj5p6A1wOPdXeghBESK-5" style="edgeStyle=orthogonalEdgeStyle;rounded=0;orthogonalLoop=1;jettySize=auto;html=1;exitX=0.5;exitY=1;exitDx=0;exitDy=0;entryX=0.5;entryY=0;entryDx=0;entryDy=0;" parent="1" source="LKj5p6A1wOPdXeghBESK-1" target="LKj5p6A1wOPdXeghBESK-2" edge="1">
          <mxGeometry relative="1" as="geometry" />
        </mxCell>
        <mxCell id="LKj5p6A1wOPdXeghBESK-1" value="app" style="rounded=1;whiteSpace=wrap;html=1;" parent="1" vertex="1">
          <mxGeometry x="320" y="50" width="90" height="40" as="geometry" />
        </mxCell>
        <mxCell id="LKj5p6A1wOPdXeghBESK-6" style="edgeStyle=orthogonalEdgeStyle;rounded=0;orthogonalLoop=1;jettySize=auto;html=1;exitX=0.5;exitY=1;exitDx=0;exitDy=0;entryX=0.5;entryY=0;entryDx=0;entryDy=0;" parent="1" source="LKj5p6A1wOPdXeghBESK-2" target="LKj5p6A1wOPdXeghBESK-3" edge="1">
          <mxGeometry relative="1" as="geometry" />
        </mxCell>
        <mxCell id="LKj5p6A1wOPdXeghBESK-7" style="edgeStyle=orthogonalEdgeStyle;rounded=0;orthogonalLoop=1;jettySize=auto;html=1;exitX=0.5;exitY=1;exitDx=0;exitDy=0;entryX=0.5;entryY=0;entryDx=0;entryDy=0;" parent="1" source="LKj5p6A1wOPdXeghBESK-2" target="LKj5p6A1wOPdXeghBESK-4" edge="1">
          <mxGeometry relative="1" as="geometry" />
        </mxCell>
        <mxCell id="LKj5p6A1wOPdXeghBESK-2" value="http&lt;br&gt;3rdpay" style="rounded=0;whiteSpace=wrap;html=1;" parent="1" vertex="1">
          <mxGeometry x="305" y="130" width="120" height="50" as="geometry" />
        </mxCell>
        <mxCell id="LKj5p6A1wOPdXeghBESK-10" style="edgeStyle=orthogonalEdgeStyle;rounded=0;orthogonalLoop=1;jettySize=auto;html=1;exitX=0.5;exitY=1;exitDx=0;exitDy=0;" parent="1" source="LKj5p6A1wOPdXeghBESK-3" target="LKj5p6A1wOPdXeghBESK-8" edge="1">
          <mxGeometry relative="1" as="geometry" />
        </mxCell>
        <mxCell id="LKj5p6A1wOPdXeghBESK-3" value="灰度&lt;br&gt;nacos" style="rounded=0;whiteSpace=wrap;html=1;" parent="1" vertex="1">
          <mxGeometry x="160" y="280" width="120" height="60" as="geometry" />
        </mxCell>
        <mxCell id="LKj5p6A1wOPdXeghBESK-11" style="edgeStyle=orthogonalEdgeStyle;rounded=0;orthogonalLoop=1;jettySize=auto;html=1;exitX=0.5;exitY=1;exitDx=0;exitDy=0;entryX=0.5;entryY=0;entryDx=0;entryDy=0;" parent="1" source="LKj5p6A1wOPdXeghBESK-4" target="LKj5p6A1wOPdXeghBESK-9" edge="1">
          <mxGeometry relative="1" as="geometry" />
        </mxCell>
        <mxCell id="LKj5p6A1wOPdXeghBESK-4" value="生产&lt;br&gt;nacos" style="rounded=0;whiteSpace=wrap;html=1;" parent="1" vertex="1">
          <mxGeometry x="440" y="280" width="120" height="60" as="geometry" />
        </mxCell>
        <mxCell id="LKj5p6A1wOPdXeghBESK-8" value="支付开关&lt;br&gt;开" style="rounded=1;whiteSpace=wrap;html=1;" parent="1" vertex="1">
          <mxGeometry x="160" y="380" width="120" height="60" as="geometry" />
        </mxCell>
        <mxCell id="LKj5p6A1wOPdXeghBESK-9" value="支付开关&lt;br&gt;关" style="rounded=1;whiteSpace=wrap;html=1;" parent="1" vertex="1">
          <mxGeometry x="440" y="380" width="120" height="60" as="geometry" />
        </mxCell>
        <mxCell id="LKj5p6A1wOPdXeghBESK-14" value="" style="endArrow=none;dashed=1;html=1;dashPattern=1 3;strokeWidth=1;rounded=0;entryX=0.5;entryY=0;entryDx=0;entryDy=0;exitX=0.5;exitY=1;exitDx=0;exitDy=0;" parent="1" source="LKj5p6A1wOPdXeghBESK-13" target="LKj5p6A1wOPdXeghBESK-13" edge="1">
          <mxGeometry width="50" height="50" relative="1" as="geometry">
            <mxPoint x="380" y="320" as="sourcePoint" />
            <mxPoint x="430" y="270" as="targetPoint" />
          </mxGeometry>
        </mxCell>
        <mxCell id="LKj5p6A1wOPdXeghBESK-15" value="内部用户通过渠道包进行验证" style="text;html=1;strokeColor=none;fillColor=none;align=center;verticalAlign=middle;whiteSpace=wrap;rounded=0;dashed=1;" parent="1" vertex="1">
          <mxGeometry x="130" y="50" width="100" height="30" as="geometry" />
        </mxCell>
        <mxCell id="LKj5p6A1wOPdXeghBESK-16" value="生产用户支付功能&lt;br&gt;不可见" style="text;html=1;strokeColor=none;fillColor=none;align=center;verticalAlign=middle;whiteSpace=wrap;rounded=0;dashed=1;" parent="1" vertex="1">
          <mxGeometry x="510" y="50" width="100" height="40" as="geometry" />
        </mxCell>
      </root>
    </mxGraphModel>
  </diagram>
  <diagram id="wxYPJpiME_j042TMODb1" name="Push推送userId">
    <mxGraphModel dx="946" dy="548" grid="1" gridSize="10" guides="1" tooltips="1" connect="1" arrows="1" fold="1" page="1" pageScale="1" pageWidth="827" pageHeight="1169" math="0" shadow="0">
      <root>
        <mxCell id="0" />
        <mxCell id="1" parent="0" />
        <mxCell id="8JXvULGLDBDLUBsSb-vN-5" style="rounded=0;orthogonalLoop=1;jettySize=auto;html=1;exitX=1;exitY=0.5;exitDx=0;exitDy=0;entryX=0;entryY=0.5;entryDx=0;entryDy=0;" parent="1" source="8JXvULGLDBDLUBsSb-vN-1" target="8JXvULGLDBDLUBsSb-vN-4" edge="1">
          <mxGeometry relative="1" as="geometry" />
        </mxCell>
        <mxCell id="Rw6KO3WLtv15eUY2fhsH-1" value="角色ID" style="edgeLabel;html=1;align=center;verticalAlign=middle;resizable=0;points=[];" parent="8JXvULGLDBDLUBsSb-vN-5" vertex="1" connectable="0">
          <mxGeometry x="-0.3735" y="2" relative="1" as="geometry">
            <mxPoint as="offset" />
          </mxGeometry>
        </mxCell>
        <mxCell id="8JXvULGLDBDLUBsSb-vN-1" value="user" style="rounded=0;whiteSpace=wrap;html=1;" parent="1" vertex="1">
          <mxGeometry x="100" y="80" width="120" height="60" as="geometry" />
        </mxCell>
        <mxCell id="8JXvULGLDBDLUBsSb-vN-6" style="rounded=0;orthogonalLoop=1;jettySize=auto;html=1;exitX=1;exitY=0.5;exitDx=0;exitDy=0;" parent="1" source="8JXvULGLDBDLUBsSb-vN-2" target="8JXvULGLDBDLUBsSb-vN-4" edge="1">
          <mxGeometry relative="1" as="geometry">
            <mxPoint x="440" y="200" as="targetPoint" />
          </mxGeometry>
        </mxCell>
        <mxCell id="Rw6KO3WLtv15eUY2fhsH-2" value="角色ID" style="edgeLabel;html=1;align=center;verticalAlign=middle;resizable=0;points=[];" parent="8JXvULGLDBDLUBsSb-vN-6" vertex="1" connectable="0">
          <mxGeometry x="-0.2592" y="3" relative="1" as="geometry">
            <mxPoint as="offset" />
          </mxGeometry>
        </mxCell>
        <mxCell id="8JXvULGLDBDLUBsSb-vN-2" value="postion" style="rounded=0;whiteSpace=wrap;html=1;" parent="1" vertex="1">
          <mxGeometry x="100" y="160" width="120" height="60" as="geometry" />
        </mxCell>
        <mxCell id="8JXvULGLDBDLUBsSb-vN-8" style="rounded=0;orthogonalLoop=1;jettySize=auto;html=1;exitX=1;exitY=0.5;exitDx=0;exitDy=0;entryX=0;entryY=0.5;entryDx=0;entryDy=0;" parent="1" source="8JXvULGLDBDLUBsSb-vN-3" target="8JXvULGLDBDLUBsSb-vN-4" edge="1">
          <mxGeometry relative="1" as="geometry" />
        </mxCell>
        <mxCell id="Rw6KO3WLtv15eUY2fhsH-3" value="角色ID" style="edgeLabel;html=1;align=center;verticalAlign=middle;resizable=0;points=[];" parent="8JXvULGLDBDLUBsSb-vN-8" vertex="1" connectable="0">
          <mxGeometry x="-0.0406" relative="1" as="geometry">
            <mxPoint as="offset" />
          </mxGeometry>
        </mxCell>
        <mxCell id="8JXvULGLDBDLUBsSb-vN-3" value="pay" style="rounded=0;whiteSpace=wrap;html=1;" parent="1" vertex="1">
          <mxGeometry x="100" y="240" width="120" height="60" as="geometry" />
        </mxCell>
        <mxCell id="8JXvULGLDBDLUBsSb-vN-11" style="edgeStyle=orthogonalEdgeStyle;rounded=0;orthogonalLoop=1;jettySize=auto;html=1;exitX=1;exitY=0.5;exitDx=0;exitDy=0;entryX=0;entryY=0.5;entryDx=0;entryDy=0;" parent="1" source="8JXvULGLDBDLUBsSb-vN-4" target="8JXvULGLDBDLUBsSb-vN-10" edge="1">
          <mxGeometry relative="1" as="geometry" />
        </mxCell>
        <mxCell id="8JXvULGLDBDLUBsSb-vN-15" value="用户ID" style="edgeLabel;html=1;align=center;verticalAlign=middle;resizable=0;points=[];" parent="8JXvULGLDBDLUBsSb-vN-11" vertex="1" connectable="0">
          <mxGeometry x="-0.2182" y="1" relative="1" as="geometry">
            <mxPoint y="1" as="offset" />
          </mxGeometry>
        </mxCell>
        <mxCell id="8JXvULGLDBDLUBsSb-vN-4" value="msg" style="rounded=0;whiteSpace=wrap;html=1;" parent="1" vertex="1">
          <mxGeometry x="460" y="170" width="120" height="60" as="geometry" />
        </mxCell>
        <mxCell id="8JXvULGLDBDLUBsSb-vN-10" value="push" style="rounded=0;whiteSpace=wrap;html=1;" parent="1" vertex="1">
          <mxGeometry x="690" y="170" width="120" height="60" as="geometry" />
        </mxCell>
        <mxCell id="8JXvULGLDBDLUBsSb-vN-13" style="edgeStyle=orthogonalEdgeStyle;rounded=0;orthogonalLoop=1;jettySize=auto;html=1;exitX=0.5;exitY=1;exitDx=0;exitDy=0;entryX=0.5;entryY=0;entryDx=0;entryDy=0;" parent="1" source="8JXvULGLDBDLUBsSb-vN-12" target="8JXvULGLDBDLUBsSb-vN-4" edge="1">
          <mxGeometry relative="1" as="geometry" />
        </mxCell>
        <mxCell id="8JXvULGLDBDLUBsSb-vN-14" value="用角色ID获取用户ID" style="edgeLabel;html=1;align=center;verticalAlign=middle;resizable=0;points=[];" parent="8JXvULGLDBDLUBsSb-vN-13" vertex="1" connectable="0">
          <mxGeometry x="-0.25" relative="1" as="geometry">
            <mxPoint as="offset" />
          </mxGeometry>
        </mxCell>
        <mxCell id="8JXvULGLDBDLUBsSb-vN-12" value="用户ID&lt;br&gt;角色ID&lt;br&gt;缓存在Redis" style="rounded=1;whiteSpace=wrap;html=1;" parent="1" vertex="1">
          <mxGeometry x="460" y="10" width="120" height="60" as="geometry" />
        </mxCell>
        <mxCell id="8JXvULGLDBDLUBsSb-vN-16" value="&lt;h1&gt;msg服务转换&lt;/h1&gt;&lt;div&gt;msg服务做id的转换&lt;/div&gt;&lt;div&gt;原先的服务埋点逻辑不变&lt;/div&gt;&lt;div&gt;如果要更换埋点消息内容需要两端配合&lt;/div&gt;" style="text;html=1;strokeColor=none;fillColor=none;spacing=5;spacingTop=-20;whiteSpace=wrap;overflow=hidden;rounded=0;" parent="1" vertex="1">
          <mxGeometry x="430" y="260" width="230" height="120" as="geometry" />
        </mxCell>
        <mxCell id="8JXvULGLDBDLUBsSb-vN-18" style="rounded=0;orthogonalLoop=1;jettySize=auto;html=1;exitX=1;exitY=0.5;exitDx=0;exitDy=0;entryX=0;entryY=0.5;entryDx=0;entryDy=0;" parent="1" source="8JXvULGLDBDLUBsSb-vN-17" target="8JXvULGLDBDLUBsSb-vN-4" edge="1">
          <mxGeometry relative="1" as="geometry">
            <mxPoint x="420" y="230" as="targetPoint" />
          </mxGeometry>
        </mxCell>
        <mxCell id="Rw6KO3WLtv15eUY2fhsH-4" value="角色ID" style="edgeLabel;html=1;align=center;verticalAlign=middle;resizable=0;points=[];" parent="8JXvULGLDBDLUBsSb-vN-18" vertex="1" connectable="0">
          <mxGeometry x="0.1654" y="-4" relative="1" as="geometry">
            <mxPoint as="offset" />
          </mxGeometry>
        </mxCell>
        <mxCell id="8JXvULGLDBDLUBsSb-vN-17" value="..." style="rounded=0;whiteSpace=wrap;html=1;" parent="1" vertex="1">
          <mxGeometry x="100" y="330" width="120" height="60" as="geometry" />
        </mxCell>
      </root>
    </mxGraphModel>
  </diagram>
  <diagram id="k2vRSlIgIzKKIgugVUz-" name="停服公告">
    <mxGraphModel dx="946" dy="548" grid="1" gridSize="10" guides="1" tooltips="1" connect="1" arrows="1" fold="1" page="1" pageScale="1" pageWidth="827" pageHeight="1169" math="0" shadow="0">
      <root>
        <mxCell id="0" />
        <mxCell id="1" parent="0" />
        <mxCell id="ytwmIfQ4Oh8YsISu7xkb-14" style="edgeStyle=orthogonalEdgeStyle;rounded=0;orthogonalLoop=1;jettySize=auto;html=1;exitX=0.5;exitY=1;exitDx=0;exitDy=0;dashed=1;dashPattern=1 1;" parent="1" source="ytwmIfQ4Oh8YsISu7xkb-1" target="ytwmIfQ4Oh8YsISu7xkb-2" edge="1">
          <mxGeometry relative="1" as="geometry" />
        </mxCell>
        <mxCell id="ytwmIfQ4Oh8YsISu7xkb-19" style="edgeStyle=orthogonalEdgeStyle;rounded=0;orthogonalLoop=1;jettySize=auto;html=1;exitX=0.5;exitY=1;exitDx=0;exitDy=0;entryX=0.5;entryY=0;entryDx=0;entryDy=0;dashed=1;dashPattern=1 1;" parent="1" source="ytwmIfQ4Oh8YsISu7xkb-1" target="ytwmIfQ4Oh8YsISu7xkb-3" edge="1">
          <mxGeometry relative="1" as="geometry" />
        </mxCell>
        <mxCell id="ytwmIfQ4Oh8YsISu7xkb-1" value="pass" style="rounded=0;whiteSpace=wrap;html=1;dashed=1;dashPattern=1 1;" parent="1" vertex="1">
          <mxGeometry x="230" y="255" width="410" height="60" as="geometry" />
        </mxCell>
        <mxCell id="ytwmIfQ4Oh8YsISu7xkb-15" style="edgeStyle=orthogonalEdgeStyle;rounded=0;orthogonalLoop=1;jettySize=auto;html=1;exitX=0.5;exitY=1;exitDx=0;exitDy=0;entryX=0.5;entryY=0;entryDx=0;entryDy=0;dashed=1;dashPattern=1 1;" parent="1" source="ytwmIfQ4Oh8YsISu7xkb-2" target="ytwmIfQ4Oh8YsISu7xkb-4" edge="1">
          <mxGeometry relative="1" as="geometry" />
        </mxCell>
        <mxCell id="ytwmIfQ4Oh8YsISu7xkb-16" style="edgeStyle=orthogonalEdgeStyle;rounded=0;orthogonalLoop=1;jettySize=auto;html=1;exitX=0.5;exitY=1;exitDx=0;exitDy=0;entryX=0.5;entryY=0;entryDx=0;entryDy=0;dashed=1;dashPattern=1 1;" parent="1" source="ytwmIfQ4Oh8YsISu7xkb-2" target="ytwmIfQ4Oh8YsISu7xkb-7" edge="1">
          <mxGeometry relative="1" as="geometry" />
        </mxCell>
        <mxCell id="ytwmIfQ4Oh8YsISu7xkb-17" style="edgeStyle=orthogonalEdgeStyle;rounded=0;orthogonalLoop=1;jettySize=auto;html=1;exitX=0.5;exitY=1;exitDx=0;exitDy=0;entryX=0.5;entryY=0;entryDx=0;entryDy=0;dashed=1;dashPattern=1 1;" parent="1" source="ytwmIfQ4Oh8YsISu7xkb-2" target="ytwmIfQ4Oh8YsISu7xkb-6" edge="1">
          <mxGeometry relative="1" as="geometry" />
        </mxCell>
        <mxCell id="ytwmIfQ4Oh8YsISu7xkb-18" style="edgeStyle=orthogonalEdgeStyle;rounded=0;orthogonalLoop=1;jettySize=auto;html=1;exitX=0.5;exitY=1;exitDx=0;exitDy=0;entryX=0.5;entryY=0;entryDx=0;entryDy=0;dashed=1;dashPattern=1 1;" parent="1" source="ytwmIfQ4Oh8YsISu7xkb-2" target="ytwmIfQ4Oh8YsISu7xkb-5" edge="1">
          <mxGeometry relative="1" as="geometry" />
        </mxCell>
        <mxCell id="ytwmIfQ4Oh8YsISu7xkb-2" value="gateway" style="rounded=1;whiteSpace=wrap;html=1;dashed=1;dashPattern=1 1;" parent="1" vertex="1">
          <mxGeometry x="250" y="375" width="120" height="60" as="geometry" />
        </mxCell>
        <mxCell id="ytwmIfQ4Oh8YsISu7xkb-3" value="pa" style="rounded=1;whiteSpace=wrap;html=1;dashed=1;dashPattern=1 1;" parent="1" vertex="1">
          <mxGeometry x="520" y="375" width="120" height="60" as="geometry" />
        </mxCell>
        <mxCell id="ytwmIfQ4Oh8YsISu7xkb-4" value="user" style="rounded=1;whiteSpace=wrap;html=1;dashed=1;dashPattern=1 1;" parent="1" vertex="1">
          <mxGeometry x="160" y="535" width="50" height="50" as="geometry" />
        </mxCell>
        <mxCell id="ytwmIfQ4Oh8YsISu7xkb-5" value="..." style="rounded=1;whiteSpace=wrap;html=1;dashed=1;dashPattern=1 1;" parent="1" vertex="1">
          <mxGeometry x="400" y="535" width="50" height="50" as="geometry" />
        </mxCell>
        <mxCell id="ytwmIfQ4Oh8YsISu7xkb-6" value="system" style="rounded=1;whiteSpace=wrap;html=1;dashed=1;dashPattern=1 1;" parent="1" vertex="1">
          <mxGeometry x="320" y="535" width="50" height="50" as="geometry" />
        </mxCell>
        <mxCell id="ytwmIfQ4Oh8YsISu7xkb-7" value="msg" style="rounded=1;whiteSpace=wrap;html=1;dashed=1;dashPattern=1 1;" parent="1" vertex="1">
          <mxGeometry x="240" y="535" width="50" height="50" as="geometry" />
        </mxCell>
        <mxCell id="ytwmIfQ4Oh8YsISu7xkb-12" style="edgeStyle=orthogonalEdgeStyle;rounded=0;orthogonalLoop=1;jettySize=auto;html=1;exitX=0.75;exitY=1;exitDx=0;exitDy=0;entryX=0.5;entryY=0;entryDx=0;entryDy=0;dashed=1;dashPattern=1 1;" parent="1" source="ytwmIfQ4Oh8YsISu7xkb-8" target="ytwmIfQ4Oh8YsISu7xkb-1" edge="1">
          <mxGeometry relative="1" as="geometry" />
        </mxCell>
        <mxCell id="ytwmIfQ4Oh8YsISu7xkb-8" value="web" style="rounded=1;whiteSpace=wrap;html=1;dashed=1;dashPattern=1 1;" parent="1" vertex="1">
          <mxGeometry x="230" y="155" width="70" height="50" as="geometry" />
        </mxCell>
        <mxCell id="ytwmIfQ4Oh8YsISu7xkb-13" style="edgeStyle=orthogonalEdgeStyle;rounded=0;orthogonalLoop=1;jettySize=auto;html=1;exitX=0.5;exitY=1;exitDx=0;exitDy=0;entryX=0.5;entryY=0;entryDx=0;entryDy=0;dashed=1;dashPattern=1 1;" parent="1" source="ytwmIfQ4Oh8YsISu7xkb-11" target="ytwmIfQ4Oh8YsISu7xkb-1" edge="1">
          <mxGeometry relative="1" as="geometry">
            <mxPoint x="440" y="255" as="targetPoint" />
          </mxGeometry>
        </mxCell>
        <mxCell id="ytwmIfQ4Oh8YsISu7xkb-11" value="app" style="rounded=1;whiteSpace=wrap;html=1;dashed=1;dashPattern=1 1;" parent="1" vertex="1">
          <mxGeometry x="550" y="155" width="70" height="50" as="geometry" />
        </mxCell>
      </root>
    </mxGraphModel>
  </diagram>
  <diagram id="jthV7-8X6jTpfBakfx03" name="JS拉新">
    <mxGraphModel dx="1426" dy="769" grid="1" gridSize="10" guides="1" tooltips="1" connect="1" arrows="1" fold="1" page="1" pageScale="1" pageWidth="827" pageHeight="1169" background="#FFFFFF" math="0" shadow="0">
      <root>
        <mxCell id="0" />
        <mxCell id="1" parent="0" />
        <mxCell id="uA9h-hV5zZD78vr0PwWA-5" style="rounded=0;orthogonalLoop=1;jettySize=auto;html=1;exitX=1;exitY=0.5;exitDx=0;exitDy=0;entryX=0;entryY=0.5;entryDx=0;entryDy=0;" parent="1" source="uA9h-hV5zZD78vr0PwWA-1" target="uA9h-hV5zZD78vr0PwWA-2" edge="1">
          <mxGeometry relative="1" as="geometry" />
        </mxCell>
        <mxCell id="uA9h-hV5zZD78vr0PwWA-6" style="rounded=0;orthogonalLoop=1;jettySize=auto;html=1;entryX=0;entryY=0.5;entryDx=0;entryDy=0;exitX=1;exitY=0.5;exitDx=0;exitDy=0;" parent="1" source="uA9h-hV5zZD78vr0PwWA-1" target="uA9h-hV5zZD78vr0PwWA-3" edge="1">
          <mxGeometry relative="1" as="geometry" />
        </mxCell>
        <mxCell id="uA9h-hV5zZD78vr0PwWA-7" style="rounded=0;orthogonalLoop=1;jettySize=auto;html=1;exitX=1;exitY=0.5;exitDx=0;exitDy=0;entryX=0;entryY=0.5;entryDx=0;entryDy=0;" parent="1" source="uA9h-hV5zZD78vr0PwWA-1" target="uA9h-hV5zZD78vr0PwWA-4" edge="1">
          <mxGeometry relative="1" as="geometry" />
        </mxCell>
        <mxCell id="uA9h-hV5zZD78vr0PwWA-10" style="edgeStyle=none;rounded=0;orthogonalLoop=1;jettySize=auto;html=1;exitX=1;exitY=0.5;exitDx=0;exitDy=0;entryX=0;entryY=0.5;entryDx=0;entryDy=0;" parent="1" source="uA9h-hV5zZD78vr0PwWA-1" target="uA9h-hV5zZD78vr0PwWA-9" edge="1">
          <mxGeometry relative="1" as="geometry" />
        </mxCell>
        <mxCell id="D5hWllVHSn7_AgNh1Baz-7" style="rounded=0;orthogonalLoop=1;jettySize=auto;html=1;exitX=1;exitY=0.5;exitDx=0;exitDy=0;entryX=0;entryY=0.5;entryDx=0;entryDy=0;" parent="1" source="uA9h-hV5zZD78vr0PwWA-1" target="D5hWllVHSn7_AgNh1Baz-6" edge="1">
          <mxGeometry relative="1" as="geometry" />
        </mxCell>
        <mxCell id="uA9h-hV5zZD78vr0PwWA-1" value="活动" style="rounded=1;whiteSpace=wrap;html=1;arcSize=8;" parent="1" vertex="1">
          <mxGeometry x="40" y="230" width="100" height="60" as="geometry" />
        </mxCell>
        <mxCell id="uA9h-hV5zZD78vr0PwWA-2" value="用户" style="rounded=1;whiteSpace=wrap;html=1;" parent="1" vertex="1">
          <mxGeometry x="290" y="80" width="120" height="60" as="geometry" />
        </mxCell>
        <mxCell id="uA9h-hV5zZD78vr0PwWA-3" value="账户" style="rounded=1;whiteSpace=wrap;html=1;" parent="1" vertex="1">
          <mxGeometry x="290" y="160" width="120" height="60" as="geometry" />
        </mxCell>
        <mxCell id="uA9h-hV5zZD78vr0PwWA-4" value="通知" style="rounded=1;whiteSpace=wrap;html=1;" parent="1" vertex="1">
          <mxGeometry x="290" y="240" width="120" height="60" as="geometry" />
        </mxCell>
        <mxCell id="uA9h-hV5zZD78vr0PwWA-9" value="课程" style="rounded=1;whiteSpace=wrap;html=1;" parent="1" vertex="1">
          <mxGeometry x="290" y="320" width="120" height="60" as="geometry" />
        </mxCell>
        <mxCell id="uA9h-hV5zZD78vr0PwWA-19" value="" style="edgeStyle=none;rounded=0;orthogonalLoop=1;jettySize=auto;html=1;fontSize=14;" parent="1" source="uA9h-hV5zZD78vr0PwWA-12" target="uA9h-hV5zZD78vr0PwWA-18" edge="1">
          <mxGeometry relative="1" as="geometry" />
        </mxCell>
        <mxCell id="uA9h-hV5zZD78vr0PwWA-12" value="JS注册" style="rounded=1;whiteSpace=wrap;html=1;fontSize=14;" parent="1" vertex="1">
          <mxGeometry x="60" y="525" width="120" height="60" as="geometry" />
        </mxCell>
        <mxCell id="D5hWllVHSn7_AgNh1Baz-12" style="edgeStyle=none;rounded=0;orthogonalLoop=1;jettySize=auto;html=1;" parent="1" source="uA9h-hV5zZD78vr0PwWA-17" target="uA9h-hV5zZD78vr0PwWA-12" edge="1">
          <mxGeometry relative="1" as="geometry" />
        </mxCell>
        <mxCell id="uA9h-hV5zZD78vr0PwWA-17" value="分配邀请码&lt;br&gt;邀请码匹配(自动填充)" style="text;html=1;strokeColor=none;fillColor=none;align=left;verticalAlign=middle;whiteSpace=wrap;rounded=0;fontSize=14;" parent="1" vertex="1">
          <mxGeometry x="260" y="540" width="190" height="30" as="geometry" />
        </mxCell>
        <mxCell id="uA9h-hV5zZD78vr0PwWA-21" value="" style="edgeStyle=none;rounded=0;orthogonalLoop=1;jettySize=auto;html=1;fontSize=14;" parent="1" source="uA9h-hV5zZD78vr0PwWA-18" target="uA9h-hV5zZD78vr0PwWA-20" edge="1">
          <mxGeometry relative="1" as="geometry" />
        </mxCell>
        <mxCell id="uA9h-hV5zZD78vr0PwWA-18" value="进入活动主页" style="rounded=1;whiteSpace=wrap;html=1;fontSize=14;" parent="1" vertex="1">
          <mxGeometry x="60" y="640" width="120" height="60" as="geometry" />
        </mxCell>
        <mxCell id="uA9h-hV5zZD78vr0PwWA-23" value="" style="edgeStyle=none;rounded=0;orthogonalLoop=1;jettySize=auto;html=1;fontSize=14;" parent="1" source="uA9h-hV5zZD78vr0PwWA-20" target="uA9h-hV5zZD78vr0PwWA-22" edge="1">
          <mxGeometry relative="1" as="geometry" />
        </mxCell>
        <mxCell id="uA9h-hV5zZD78vr0PwWA-20" value="生成分享链接" style="rounded=1;whiteSpace=wrap;html=1;fontSize=14;" parent="1" vertex="1">
          <mxGeometry x="60" y="750" width="120" height="60" as="geometry" />
        </mxCell>
        <mxCell id="uA9h-hV5zZD78vr0PwWA-27" value="" style="edgeStyle=none;rounded=0;orthogonalLoop=1;jettySize=auto;html=1;fontSize=14;" parent="1" source="uA9h-hV5zZD78vr0PwWA-22" target="uA9h-hV5zZD78vr0PwWA-26" edge="1">
          <mxGeometry relative="1" as="geometry" />
        </mxCell>
        <mxCell id="uA9h-hV5zZD78vr0PwWA-22" value="被邀请者&lt;br&gt;完成活动任务" style="rounded=1;whiteSpace=wrap;html=1;fontSize=14;" parent="1" vertex="1">
          <mxGeometry x="60" y="860" width="120" height="60" as="geometry" />
        </mxCell>
        <mxCell id="D5hWllVHSn7_AgNh1Baz-14" style="edgeStyle=none;rounded=0;orthogonalLoop=1;jettySize=auto;html=1;entryX=1;entryY=0.5;entryDx=0;entryDy=0;" parent="1" source="uA9h-hV5zZD78vr0PwWA-24" target="uA9h-hV5zZD78vr0PwWA-20" edge="1">
          <mxGeometry relative="1" as="geometry" />
        </mxCell>
        <mxCell id="uA9h-hV5zZD78vr0PwWA-24" value="分享链接带有分销码和邀请者唯一标识&lt;br&gt;openinstall" style="text;html=1;strokeColor=none;fillColor=none;align=left;verticalAlign=middle;whiteSpace=wrap;rounded=0;fontSize=14;" parent="1" vertex="1">
          <mxGeometry x="255" y="765" width="250" height="30" as="geometry" />
        </mxCell>
        <mxCell id="D5hWllVHSn7_AgNh1Baz-15" style="edgeStyle=none;rounded=0;orthogonalLoop=1;jettySize=auto;html=1;entryX=1;entryY=0.5;entryDx=0;entryDy=0;" parent="1" source="uA9h-hV5zZD78vr0PwWA-25" target="uA9h-hV5zZD78vr0PwWA-22" edge="1">
          <mxGeometry relative="1" as="geometry" />
        </mxCell>
        <mxCell id="uA9h-hV5zZD78vr0PwWA-25" value="1:用户注册流程&lt;br&gt;2:课程完成流程&lt;br&gt;3:拉新人数流程" style="text;html=1;strokeColor=none;fillColor=none;align=left;verticalAlign=middle;whiteSpace=wrap;rounded=0;fontSize=14;" parent="1" vertex="1">
          <mxGeometry x="260" y="860" width="260" height="55" as="geometry" />
        </mxCell>
        <mxCell id="uA9h-hV5zZD78vr0PwWA-29" value="" style="edgeStyle=none;rounded=0;orthogonalLoop=1;jettySize=auto;html=1;fontSize=14;" parent="1" source="uA9h-hV5zZD78vr0PwWA-26" target="uA9h-hV5zZD78vr0PwWA-28" edge="1">
          <mxGeometry relative="1" as="geometry" />
        </mxCell>
        <mxCell id="uA9h-hV5zZD78vr0PwWA-26" value="余额账户累积&lt;br&gt;(奖励)" style="rounded=1;whiteSpace=wrap;html=1;fontSize=14;" parent="1" vertex="1">
          <mxGeometry x="55" y="980" width="130" height="60" as="geometry" />
        </mxCell>
        <mxCell id="uA9h-hV5zZD78vr0PwWA-28" value="余额消耗&lt;br&gt;(提现)" style="rounded=1;whiteSpace=wrap;html=1;fontSize=14;" parent="1" vertex="1">
          <mxGeometry x="265" y="980" width="130" height="60" as="geometry" />
        </mxCell>
        <mxCell id="D5hWllVHSn7_AgNh1Baz-13" style="edgeStyle=none;rounded=0;orthogonalLoop=1;jettySize=auto;html=1;entryX=1;entryY=0.5;entryDx=0;entryDy=0;" parent="1" source="uA9h-hV5zZD78vr0PwWA-30" target="uA9h-hV5zZD78vr0PwWA-18" edge="1">
          <mxGeometry relative="1" as="geometry" />
        </mxCell>
        <mxCell id="uA9h-hV5zZD78vr0PwWA-30" value="App端控制活动入口(mgm活动只针对JS)&lt;br&gt;设计得考虑到后期活动的扩展(例如对JP也做相关的活动)&lt;br&gt;活动管理&lt;br&gt;活动参与情况统计数据" style="text;html=1;strokeColor=none;fillColor=none;align=left;verticalAlign=middle;whiteSpace=wrap;rounded=0;fontSize=14;" parent="1" vertex="1">
          <mxGeometry x="255" y="650" width="395" height="40" as="geometry" />
        </mxCell>
        <mxCell id="D5hWllVHSn7_AgNh1Baz-16" style="edgeStyle=none;rounded=0;orthogonalLoop=1;jettySize=auto;html=1;exitX=0.25;exitY=0;exitDx=0;exitDy=0;entryX=0.5;entryY=1;entryDx=0;entryDy=0;" parent="1" source="uA9h-hV5zZD78vr0PwWA-31" target="uA9h-hV5zZD78vr0PwWA-26" edge="1">
          <mxGeometry relative="1" as="geometry" />
        </mxCell>
        <mxCell id="uA9h-hV5zZD78vr0PwWA-31" value="&lt;div&gt;&lt;span&gt;1:邀请者端实时查询被邀者任务进度&lt;/span&gt;&lt;/div&gt;&lt;div&gt;&lt;span&gt;2:邀请者端实时提醒被邀请者完成任务&lt;/span&gt;&lt;/div&gt;&lt;div&gt;&lt;span&gt;3:邀请者和被邀请者端跑马灯展示获取奖励消息&lt;/span&gt;&lt;/div&gt;" style="text;html=1;strokeColor=none;fillColor=none;align=left;verticalAlign=middle;whiteSpace=wrap;rounded=0;fontSize=14;" parent="1" vertex="1">
          <mxGeometry x="30" y="1080" width="355" height="50" as="geometry" />
        </mxCell>
        <mxCell id="D5hWllVHSn7_AgNh1Baz-8" style="edgeStyle=none;rounded=0;orthogonalLoop=1;jettySize=auto;html=1;entryX=1;entryY=0.5;entryDx=0;entryDy=0;" parent="1" source="D5hWllVHSn7_AgNh1Baz-1" target="uA9h-hV5zZD78vr0PwWA-2" edge="1">
          <mxGeometry relative="1" as="geometry" />
        </mxCell>
        <mxCell id="D5hWllVHSn7_AgNh1Baz-1" value="&lt;div&gt;&lt;span&gt;1:用户注册、信息完善程度、简历完善程度&lt;/span&gt;&lt;/div&gt;&lt;div&gt;&lt;span&gt;2:分销码&lt;/span&gt;&lt;/div&gt;&lt;div&gt;&lt;span&gt;3:用户详情&lt;/span&gt;&lt;/div&gt;" style="text;html=1;strokeColor=none;fillColor=none;align=left;verticalAlign=middle;whiteSpace=wrap;rounded=0;" parent="1" vertex="1">
          <mxGeometry x="490" y="95" width="270" height="30" as="geometry" />
        </mxCell>
        <mxCell id="D5hWllVHSn7_AgNh1Baz-10" style="edgeStyle=none;rounded=0;orthogonalLoop=1;jettySize=auto;html=1;entryX=1;entryY=0.5;entryDx=0;entryDy=0;" parent="1" source="D5hWllVHSn7_AgNh1Baz-2" target="uA9h-hV5zZD78vr0PwWA-4" edge="1">
          <mxGeometry relative="1" as="geometry" />
        </mxCell>
        <mxCell id="D5hWllVHSn7_AgNh1Baz-2" value="1:push&lt;br&gt;2:inbox&lt;br&gt;3:others" style="text;html=1;strokeColor=none;fillColor=none;align=left;verticalAlign=middle;whiteSpace=wrap;rounded=0;" parent="1" vertex="1">
          <mxGeometry x="490" y="250" width="100" height="40" as="geometry" />
        </mxCell>
        <mxCell id="D5hWllVHSn7_AgNh1Baz-11" style="edgeStyle=none;rounded=0;orthogonalLoop=1;jettySize=auto;html=1;entryX=1;entryY=0.5;entryDx=0;entryDy=0;" parent="1" source="D5hWllVHSn7_AgNh1Baz-3" target="uA9h-hV5zZD78vr0PwWA-9" edge="1">
          <mxGeometry relative="1" as="geometry" />
        </mxCell>
        <mxCell id="D5hWllVHSn7_AgNh1Baz-3" value="1:课程完成进度&lt;br&gt;2:勋章领取数据" style="text;html=1;strokeColor=none;fillColor=none;align=left;verticalAlign=middle;whiteSpace=wrap;rounded=0;" parent="1" vertex="1">
          <mxGeometry x="490" y="335" width="200" height="30" as="geometry" />
        </mxCell>
        <mxCell id="D5hWllVHSn7_AgNh1Baz-9" style="edgeStyle=none;rounded=0;orthogonalLoop=1;jettySize=auto;html=1;" parent="1" source="D5hWllVHSn7_AgNh1Baz-4" target="uA9h-hV5zZD78vr0PwWA-3" edge="1">
          <mxGeometry relative="1" as="geometry" />
        </mxCell>
        <mxCell id="D5hWllVHSn7_AgNh1Baz-4" value="1:账户余额累积明细&lt;br&gt;2:账户余额中奖励消耗明细" style="text;html=1;strokeColor=none;fillColor=none;align=left;verticalAlign=middle;whiteSpace=wrap;rounded=0;" parent="1" vertex="1">
          <mxGeometry x="490" y="175" width="200" height="30" as="geometry" />
        </mxCell>
        <mxCell id="D5hWllVHSn7_AgNh1Baz-5" value="1:活动管理&lt;br&gt;2:活动参与情况统计" style="text;html=1;align=left;verticalAlign=middle;resizable=0;points=[];autosize=1;strokeColor=none;fillColor=none;" parent="1" vertex="1">
          <mxGeometry x="40" y="320" width="120" height="30" as="geometry" />
        </mxCell>
        <mxCell id="D5hWllVHSn7_AgNh1Baz-6" value="others" style="rounded=1;whiteSpace=wrap;html=1;" parent="1" vertex="1">
          <mxGeometry x="290" y="400" width="120" height="60" as="geometry" />
        </mxCell>
      </root>
    </mxGraphModel>
  </diagram>
  <diagram id="-_XGV-VyGuIHiy7x2AlE" name="腾讯vod视频交互">
    <mxGraphModel dx="946" dy="548" grid="1" gridSize="10" guides="1" tooltips="1" connect="1" arrows="1" fold="1" page="1" pageScale="1" pageWidth="827" pageHeight="1169" math="0" shadow="0">
      <root>
        <mxCell id="0" />
        <mxCell id="1" parent="0" />
        <mxCell id="EL9fKJf2RxUUUSZxhO6e-4" style="edgeStyle=orthogonalEdgeStyle;rounded=0;orthogonalLoop=1;jettySize=auto;html=1;entryX=0;entryY=0.5;entryDx=0;entryDy=0;" parent="1" edge="1">
          <mxGeometry relative="1" as="geometry">
            <mxPoint x="270" y="130" as="sourcePoint" />
            <mxPoint x="580" y="130" as="targetPoint" />
          </mxGeometry>
        </mxCell>
        <mxCell id="EL9fKJf2RxUUUSZxhO6e-5" value="上传视频" style="edgeLabel;html=1;align=center;verticalAlign=middle;resizable=0;points=[];" parent="EL9fKJf2RxUUUSZxhO6e-4" vertex="1" connectable="0">
          <mxGeometry x="-0.3" y="4" relative="1" as="geometry">
            <mxPoint as="offset" />
          </mxGeometry>
        </mxCell>
        <mxCell id="EL9fKJf2RxUUUSZxhO6e-12" style="edgeStyle=none;rounded=0;orthogonalLoop=1;jettySize=auto;html=1;exitX=0.5;exitY=1;exitDx=0;exitDy=0;entryX=0;entryY=0;entryDx=0;entryDy=0;dashed=1;" parent="1" source="EL9fKJf2RxUUUSZxhO6e-1" target="EL9fKJf2RxUUUSZxhO6e-2" edge="1">
          <mxGeometry relative="1" as="geometry" />
        </mxCell>
        <mxCell id="EL9fKJf2RxUUUSZxhO6e-1" value="app&lt;br&gt;tx vod sdk" style="rounded=1;whiteSpace=wrap;html=1;" parent="1" vertex="1">
          <mxGeometry x="150" y="120" width="120" height="60" as="geometry" />
        </mxCell>
        <mxCell id="EL9fKJf2RxUUUSZxhO6e-8" style="edgeStyle=none;rounded=0;orthogonalLoop=1;jettySize=auto;html=1;exitX=1;exitY=0;exitDx=0;exitDy=0;entryX=0.25;entryY=1;entryDx=0;entryDy=0;" parent="1" source="EL9fKJf2RxUUUSZxhO6e-2" target="EL9fKJf2RxUUUSZxhO6e-3" edge="1">
          <mxGeometry relative="1" as="geometry" />
        </mxCell>
        <mxCell id="EL9fKJf2RxUUUSZxhO6e-9" value="查询视频是否已上传" style="edgeLabel;html=1;align=center;verticalAlign=middle;resizable=0;points=[];" parent="EL9fKJf2RxUUUSZxhO6e-8" vertex="1" connectable="0">
          <mxGeometry x="-0.1872" relative="1" as="geometry">
            <mxPoint x="43" as="offset" />
          </mxGeometry>
        </mxCell>
        <mxCell id="EL9fKJf2RxUUUSZxhO6e-2" value="kupu server" style="rounded=1;whiteSpace=wrap;html=1;" parent="1" vertex="1">
          <mxGeometry x="350" y="350" width="120" height="60" as="geometry" />
        </mxCell>
        <mxCell id="EL9fKJf2RxUUUSZxhO6e-6" style="rounded=0;orthogonalLoop=1;jettySize=auto;html=1;exitX=0;exitY=1;exitDx=0;exitDy=0;" parent="1" source="EL9fKJf2RxUUUSZxhO6e-3" target="EL9fKJf2RxUUUSZxhO6e-2" edge="1">
          <mxGeometry relative="1" as="geometry" />
        </mxCell>
        <mxCell id="EL9fKJf2RxUUUSZxhO6e-7" value="通知视频上传完成" style="edgeLabel;html=1;align=center;verticalAlign=middle;resizable=0;points=[];" parent="EL9fKJf2RxUUUSZxhO6e-6" vertex="1" connectable="0">
          <mxGeometry x="0.0174" y="1" relative="1" as="geometry">
            <mxPoint y="-37" as="offset" />
          </mxGeometry>
        </mxCell>
        <mxCell id="EL9fKJf2RxUUUSZxhO6e-10" style="edgeStyle=none;rounded=0;orthogonalLoop=1;jettySize=auto;html=1;exitX=0;exitY=0.75;exitDx=0;exitDy=0;entryX=1;entryY=0.75;entryDx=0;entryDy=0;" parent="1" source="EL9fKJf2RxUUUSZxhO6e-3" target="EL9fKJf2RxUUUSZxhO6e-1" edge="1">
          <mxGeometry relative="1" as="geometry" />
        </mxCell>
        <mxCell id="EL9fKJf2RxUUUSZxhO6e-11" value="返回视频存储唯一标识" style="edgeLabel;html=1;align=center;verticalAlign=middle;resizable=0;points=[];" parent="EL9fKJf2RxUUUSZxhO6e-10" vertex="1" connectable="0">
          <mxGeometry x="0.325" y="2" relative="1" as="geometry">
            <mxPoint as="offset" />
          </mxGeometry>
        </mxCell>
        <mxCell id="EL9fKJf2RxUUUSZxhO6e-3" value="TX vod server" style="rounded=1;whiteSpace=wrap;html=1;" parent="1" vertex="1">
          <mxGeometry x="580" y="120" width="120" height="60" as="geometry" />
        </mxCell>
      </root>
    </mxGraphModel>
  </diagram>
  <diagram id="BoaHoReZyZFFkpercvuA" name="微服务循环依赖">
    <mxGraphModel dx="946" dy="548" grid="1" gridSize="10" guides="1" tooltips="1" connect="1" arrows="1" fold="1" page="1" pageScale="1" pageWidth="827" pageHeight="1169" math="0" shadow="0">
      <root>
        <mxCell id="0" />
        <mxCell id="1" parent="0" />
        <mxCell id="JecHC8JkB6SA6o1T9M_V-21" style="edgeStyle=orthogonalEdgeStyle;rounded=0;sketch=1;orthogonalLoop=1;jettySize=auto;html=1;exitX=0.5;exitY=0;exitDx=0;exitDy=0;shadow=0;dashed=1;dashPattern=1 1;labelBorderColor=none;entryX=0;entryY=0.5;entryDx=0;entryDy=0;" parent="1" source="JecHC8JkB6SA6o1T9M_V-1" target="JecHC8JkB6SA6o1T9M_V-38" edge="1">
          <mxGeometry relative="1" as="geometry">
            <mxPoint x="314" y="80" as="targetPoint" />
            <Array as="points">
              <mxPoint x="190" y="80" />
            </Array>
          </mxGeometry>
        </mxCell>
        <mxCell id="JecHC8JkB6SA6o1T9M_V-22" value="发送系统消息指令" style="edgeLabel;html=1;align=center;verticalAlign=middle;resizable=0;points=[];" parent="JecHC8JkB6SA6o1T9M_V-21" vertex="1" connectable="0">
          <mxGeometry x="-0.1003" y="3" relative="1" as="geometry">
            <mxPoint y="33" as="offset" />
          </mxGeometry>
        </mxCell>
        <mxCell id="JecHC8JkB6SA6o1T9M_V-1" value="用户服务" style="rounded=1;whiteSpace=wrap;html=1;labelBorderColor=none;sketch=1;shadow=0;dashed=1;dashPattern=1 1;fillColor=#ffe6cc;strokeColor=#d79b00;" parent="1" vertex="1">
          <mxGeometry x="130" y="190" width="120" height="60" as="geometry" />
        </mxCell>
        <mxCell id="JecHC8JkB6SA6o1T9M_V-2" value="三方服务" style="rounded=1;whiteSpace=wrap;html=1;labelBorderColor=none;sketch=1;shadow=0;dashed=1;dashPattern=1 1;fillColor=#ffe6cc;strokeColor=#d79b00;" parent="1" vertex="1">
          <mxGeometry x="640" y="310" width="120" height="60" as="geometry" />
        </mxCell>
        <mxCell id="JecHC8JkB6SA6o1T9M_V-3" value="职位服务" style="rounded=1;whiteSpace=wrap;html=1;labelBorderColor=none;sketch=1;shadow=0;dashed=1;dashPattern=1 1;fillColor=#ffe6cc;strokeColor=#d79b00;" parent="1" vertex="1">
          <mxGeometry x="130" y="280" width="120" height="60" as="geometry" />
        </mxCell>
        <mxCell id="JecHC8JkB6SA6o1T9M_V-24" style="edgeStyle=orthogonalEdgeStyle;rounded=0;sketch=1;orthogonalLoop=1;jettySize=auto;html=1;exitX=0.5;exitY=0;exitDx=0;exitDy=0;shadow=0;dashed=1;dashPattern=1 1;labelBorderColor=none;entryX=1;entryY=0.5;entryDx=0;entryDy=0;" parent="1" source="JecHC8JkB6SA6o1T9M_V-23" target="JecHC8JkB6SA6o1T9M_V-38" edge="1">
          <mxGeometry relative="1" as="geometry">
            <mxPoint x="414" y="80" as="targetPoint" />
            <Array as="points">
              <mxPoint x="474" y="79" />
            </Array>
          </mxGeometry>
        </mxCell>
        <mxCell id="JecHC8JkB6SA6o1T9M_V-25" value="监听指令" style="edgeLabel;html=1;align=center;verticalAlign=middle;resizable=0;points=[];" parent="JecHC8JkB6SA6o1T9M_V-24" vertex="1" connectable="0">
          <mxGeometry x="0.1105" y="2" relative="1" as="geometry">
            <mxPoint x="2" y="29" as="offset" />
          </mxGeometry>
        </mxCell>
        <mxCell id="JecHC8JkB6SA6o1T9M_V-26" style="edgeStyle=none;rounded=0;sketch=1;orthogonalLoop=1;jettySize=auto;html=1;exitX=0;exitY=0.5;exitDx=0;exitDy=0;entryX=1;entryY=0.5;entryDx=0;entryDy=0;shadow=0;dashed=1;dashPattern=1 1;labelBorderColor=none;" parent="1" source="JecHC8JkB6SA6o1T9M_V-23" target="JecHC8JkB6SA6o1T9M_V-1" edge="1">
          <mxGeometry relative="1" as="geometry" />
        </mxCell>
        <mxCell id="JecHC8JkB6SA6o1T9M_V-29" value="查询用户数据" style="edgeLabel;html=1;align=center;verticalAlign=middle;resizable=0;points=[];" parent="JecHC8JkB6SA6o1T9M_V-26" vertex="1" connectable="0">
          <mxGeometry x="0.2213" y="-3" relative="1" as="geometry">
            <mxPoint x="15" y="3" as="offset" />
          </mxGeometry>
        </mxCell>
        <mxCell id="JecHC8JkB6SA6o1T9M_V-27" style="edgeStyle=none;rounded=0;sketch=1;orthogonalLoop=1;jettySize=auto;html=1;exitX=0;exitY=0.5;exitDx=0;exitDy=0;entryX=1;entryY=0.5;entryDx=0;entryDy=0;shadow=0;dashed=1;dashPattern=1 1;labelBorderColor=none;" parent="1" source="JecHC8JkB6SA6o1T9M_V-23" target="JecHC8JkB6SA6o1T9M_V-3" edge="1">
          <mxGeometry relative="1" as="geometry" />
        </mxCell>
        <mxCell id="JecHC8JkB6SA6o1T9M_V-30" value="查询职位数据" style="edgeLabel;html=1;align=center;verticalAlign=middle;resizable=0;points=[];" parent="JecHC8JkB6SA6o1T9M_V-27" vertex="1" connectable="0">
          <mxGeometry x="-0.0109" y="1" relative="1" as="geometry">
            <mxPoint as="offset" />
          </mxGeometry>
        </mxCell>
        <mxCell id="JecHC8JkB6SA6o1T9M_V-28" style="edgeStyle=none;rounded=0;sketch=1;orthogonalLoop=1;jettySize=auto;html=1;exitX=1;exitY=0.5;exitDx=0;exitDy=0;entryX=0;entryY=0.5;entryDx=0;entryDy=0;shadow=0;dashed=1;dashPattern=1 1;labelBorderColor=none;" parent="1" source="JecHC8JkB6SA6o1T9M_V-23" target="JecHC8JkB6SA6o1T9M_V-2" edge="1">
          <mxGeometry relative="1" as="geometry" />
        </mxCell>
        <mxCell id="JecHC8JkB6SA6o1T9M_V-31" value="发送系统消息" style="edgeLabel;html=1;align=center;verticalAlign=middle;resizable=0;points=[];" parent="JecHC8JkB6SA6o1T9M_V-28" vertex="1" connectable="0">
          <mxGeometry x="-0.0615" y="-1" relative="1" as="geometry">
            <mxPoint as="offset" />
          </mxGeometry>
        </mxCell>
        <mxCell id="JecHC8JkB6SA6o1T9M_V-34" style="edgeStyle=none;rounded=0;sketch=1;orthogonalLoop=1;jettySize=auto;html=1;exitX=0;exitY=0.5;exitDx=0;exitDy=0;entryX=1;entryY=0.5;entryDx=0;entryDy=0;shadow=0;dashed=1;labelBorderColor=none;" parent="1" source="JecHC8JkB6SA6o1T9M_V-23" target="JecHC8JkB6SA6o1T9M_V-32" edge="1">
          <mxGeometry relative="1" as="geometry" />
        </mxCell>
        <mxCell id="JecHC8JkB6SA6o1T9M_V-35" style="edgeStyle=none;rounded=0;sketch=1;orthogonalLoop=1;jettySize=auto;html=1;exitX=0;exitY=0.5;exitDx=0;exitDy=0;entryX=1;entryY=0.5;entryDx=0;entryDy=0;shadow=0;dashed=1;labelBorderColor=none;" parent="1" source="JecHC8JkB6SA6o1T9M_V-23" target="JecHC8JkB6SA6o1T9M_V-33" edge="1">
          <mxGeometry relative="1" as="geometry" />
        </mxCell>
        <mxCell id="JecHC8JkB6SA6o1T9M_V-23" value="数据聚合服务" style="rounded=1;whiteSpace=wrap;html=1;labelBorderColor=none;sketch=1;shadow=0;dashed=1;dashPattern=1 1;fillColor=#ffe6cc;strokeColor=#d79b00;" parent="1" vertex="1">
          <mxGeometry x="414" y="310" width="120" height="60" as="geometry" />
        </mxCell>
        <mxCell id="JecHC8JkB6SA6o1T9M_V-32" value="课程服务" style="rounded=1;whiteSpace=wrap;html=1;labelBorderColor=none;sketch=1;shadow=0;dashed=1;fillColor=#ffe6cc;strokeColor=#d79b00;" parent="1" vertex="1">
          <mxGeometry x="130" y="370" width="120" height="60" as="geometry" />
        </mxCell>
        <mxCell id="JecHC8JkB6SA6o1T9M_V-33" value="......" style="rounded=1;whiteSpace=wrap;html=1;labelBorderColor=none;sketch=1;shadow=0;dashed=1;fillColor=#ffe6cc;strokeColor=#d79b00;" parent="1" vertex="1">
          <mxGeometry x="130" y="460" width="120" height="60" as="geometry" />
        </mxCell>
        <mxCell id="JecHC8JkB6SA6o1T9M_V-38" value="" style="shape=image;html=1;verticalAlign=top;verticalLabelPosition=bottom;labelBackgroundColor=#ffffff;imageAspect=0;aspect=fixed;image=https://cdn1.iconfinder.com/data/icons/ionicons-outline-vol-2/512/rocket-outline-128.png;shadow=0;dashed=1;dashPattern=1 1;labelBorderColor=none;sketch=1;imageBackground=#CCFFCC;" parent="1" vertex="1">
          <mxGeometry x="320" y="40" width="80" height="80" as="geometry" />
        </mxCell>
      </root>
    </mxGraphModel>
  </diagram>
  <diagram id="z0ua8b7EFTQfd9vrE-Nt" name="站内信历史数据迁移">
    <mxGraphModel dx="946" dy="548" grid="1" gridSize="10" guides="1" tooltips="1" connect="1" arrows="1" fold="1" page="1" pageScale="1" pageWidth="827" pageHeight="1169" math="0" shadow="0">
      <root>
        <mxCell id="0" />
        <mxCell id="1" parent="0" />
        <mxCell id="hsde3zzc9BVT3GweH3LC-5" style="edgeStyle=orthogonalEdgeStyle;rounded=0;orthogonalLoop=1;jettySize=auto;html=1;exitX=1;exitY=0.5;exitDx=0;exitDy=0;entryX=0;entryY=0.5;entryDx=0;entryDy=0;" parent="1" source="hsde3zzc9BVT3GweH3LC-1" target="hsde3zzc9BVT3GweH3LC-2" edge="1">
          <mxGeometry relative="1" as="geometry" />
        </mxCell>
        <mxCell id="hsde3zzc9BVT3GweH3LC-6" value="90天之前发送的数据迁移到历史表" style="edgeLabel;html=1;align=center;verticalAlign=middle;resizable=0;points=[];fontColor=#FF3333;" parent="hsde3zzc9BVT3GweH3LC-5" vertex="1" connectable="0">
          <mxGeometry x="-0.1846" y="-2" relative="1" as="geometry">
            <mxPoint x="14" y="-2" as="offset" />
          </mxGeometry>
        </mxCell>
        <mxCell id="hsde3zzc9BVT3GweH3LC-1" value="&lt;div&gt;tbl_msg_record&lt;/div&gt;" style="rounded=0;whiteSpace=wrap;html=1;" parent="1" vertex="1">
          <mxGeometry x="100" y="120" width="140" height="60" as="geometry" />
        </mxCell>
        <mxCell id="hsde3zzc9BVT3GweH3LC-2" value="&lt;div&gt;tbl_msg_record_history&lt;/div&gt;" style="rounded=0;whiteSpace=wrap;html=1;" parent="1" vertex="1">
          <mxGeometry x="530" y="120" width="140" height="60" as="geometry" />
        </mxCell>
        <mxCell id="hsde3zzc9BVT3GweH3LC-3" value="原始数据表" style="text;html=1;strokeColor=none;fillColor=none;align=center;verticalAlign=middle;whiteSpace=wrap;rounded=0;" parent="1" vertex="1">
          <mxGeometry x="135" y="80" width="70" height="30" as="geometry" />
        </mxCell>
        <mxCell id="hsde3zzc9BVT3GweH3LC-4" value="历史数据表" style="text;html=1;strokeColor=none;fillColor=none;align=center;verticalAlign=middle;whiteSpace=wrap;rounded=0;" parent="1" vertex="1">
          <mxGeometry x="565" y="80" width="70" height="30" as="geometry" />
        </mxCell>
        <mxCell id="hsde3zzc9BVT3GweH3LC-7" value="历史表需要新创建" style="text;html=1;strokeColor=#b85450;fillColor=#f8cecc;align=center;verticalAlign=middle;whiteSpace=wrap;rounded=0;" parent="1" vertex="1">
          <mxGeometry x="570" y="210" width="60" height="30" as="geometry" />
        </mxCell>
      </root>
    </mxGraphModel>
  </diagram>
  <diagram id="A7GHPW7R3nhsB0lodVb7" name="IM联结优化接口">
    <mxGraphModel dx="946" dy="548" grid="1" gridSize="10" guides="1" tooltips="1" connect="1" arrows="1" fold="1" page="1" pageScale="1" pageWidth="827" pageHeight="1169" math="0" shadow="0">
      <root>
        <mxCell id="0" />
        <mxCell id="1" parent="0" />
        <mxCell id="-kux7we6ycN59ArkVauI-3" style="rounded=0;orthogonalLoop=1;jettySize=auto;html=1;exitX=0.31;exitY=0.8;exitDx=0;exitDy=0;exitPerimeter=0;entryX=1;entryY=0;entryDx=0;entryDy=0;" edge="1" parent="1" source="-kux7we6ycN59ArkVauI-1" target="-kux7we6ycN59ArkVauI-2">
          <mxGeometry relative="1" as="geometry" />
        </mxCell>
        <mxCell id="-kux7we6ycN59ArkVauI-6" value="fromUserId&lt;br&gt;toUserId" style="edgeLabel;html=1;align=center;verticalAlign=middle;resizable=0;points=[];" vertex="1" connectable="0" parent="-kux7we6ycN59ArkVauI-3">
          <mxGeometry x="-0.0194" y="1" relative="1" as="geometry">
            <mxPoint as="offset" />
          </mxGeometry>
        </mxCell>
        <mxCell id="-kux7we6ycN59ArkVauI-1" value="融云全链路消息" style="ellipse;shape=cloud;whiteSpace=wrap;html=1;" vertex="1" parent="1">
          <mxGeometry x="570" y="30" width="140" height="80" as="geometry" />
        </mxCell>
        <mxCell id="-kux7we6ycN59ArkVauI-5" style="edgeStyle=none;rounded=0;orthogonalLoop=1;jettySize=auto;html=1;entryX=0.15;entryY=0.05;entryDx=0;entryDy=0;exitX=1;exitY=0.5;exitDx=0;exitDy=0;entryPerimeter=0;" edge="1" parent="1" source="-kux7we6ycN59ArkVauI-2" target="-kux7we6ycN59ArkVauI-4">
          <mxGeometry relative="1" as="geometry">
            <mxPoint x="510" y="220" as="sourcePoint" />
          </mxGeometry>
        </mxCell>
        <mxCell id="-kux7we6ycN59ArkVauI-7" value="解析消息&lt;br&gt;用有效期key存储数据&lt;br&gt;到期自动删除" style="edgeLabel;html=1;align=center;verticalAlign=middle;resizable=0;points=[];" vertex="1" connectable="0" parent="-kux7we6ycN59ArkVauI-5">
          <mxGeometry x="-0.2915" relative="1" as="geometry">
            <mxPoint x="40" y="-5" as="offset" />
          </mxGeometry>
        </mxCell>
        <mxCell id="-kux7we6ycN59ArkVauI-15" style="edgeStyle=none;rounded=0;orthogonalLoop=1;jettySize=auto;html=1;exitX=0;exitY=0.75;exitDx=0;exitDy=0;entryX=1;entryY=0.75;entryDx=0;entryDy=0;" edge="1" parent="1" source="-kux7we6ycN59ArkVauI-2" target="-kux7we6ycN59ArkVauI-8">
          <mxGeometry relative="1" as="geometry" />
        </mxCell>
        <mxCell id="-kux7we6ycN59ArkVauI-16" value="返回结果" style="edgeLabel;html=1;align=center;verticalAlign=middle;resizable=0;points=[];" vertex="1" connectable="0" parent="-kux7we6ycN59ArkVauI-15">
          <mxGeometry x="0.36" y="-1" relative="1" as="geometry">
            <mxPoint as="offset" />
          </mxGeometry>
        </mxCell>
        <mxCell id="-kux7we6ycN59ArkVauI-2" value="third-party" style="rounded=1;whiteSpace=wrap;html=1;" vertex="1" parent="1">
          <mxGeometry x="360" y="160" width="120" height="60" as="geometry" />
        </mxCell>
        <mxCell id="-kux7we6ycN59ArkVauI-10" style="edgeStyle=none;rounded=0;orthogonalLoop=1;jettySize=auto;html=1;exitX=0;exitY=0.7;exitDx=0;exitDy=0;entryX=0.75;entryY=1;entryDx=0;entryDy=0;" edge="1" parent="1" source="-kux7we6ycN59ArkVauI-4" target="-kux7we6ycN59ArkVauI-2">
          <mxGeometry relative="1" as="geometry" />
        </mxCell>
        <mxCell id="-kux7we6ycN59ArkVauI-17" value="userId" style="edgeLabel;html=1;align=center;verticalAlign=middle;resizable=0;points=[];" vertex="1" connectable="0" parent="-kux7we6ycN59ArkVauI-10">
          <mxGeometry x="0.1402" y="-1" relative="1" as="geometry">
            <mxPoint as="offset" />
          </mxGeometry>
        </mxCell>
        <mxCell id="-kux7we6ycN59ArkVauI-4" value="redis" style="shape=datastore;whiteSpace=wrap;html=1;" vertex="1" parent="1">
          <mxGeometry x="660" y="270" width="60" height="70" as="geometry" />
        </mxCell>
        <mxCell id="-kux7we6ycN59ArkVauI-9" style="edgeStyle=none;rounded=0;orthogonalLoop=1;jettySize=auto;html=1;entryX=0;entryY=0;entryDx=0;entryDy=0;exitX=0.5;exitY=0;exitDx=0;exitDy=0;" edge="1" parent="1" source="-kux7we6ycN59ArkVauI-8" target="-kux7we6ycN59ArkVauI-2">
          <mxGeometry relative="1" as="geometry" />
        </mxCell>
        <mxCell id="-kux7we6ycN59ArkVauI-12" value="根据用户ID询问是否需要建立IM链接" style="edgeLabel;html=1;align=center;verticalAlign=middle;resizable=0;points=[];" vertex="1" connectable="0" parent="-kux7we6ycN59ArkVauI-9">
          <mxGeometry x="-0.296" y="3" relative="1" as="geometry">
            <mxPoint x="41" as="offset" />
          </mxGeometry>
        </mxCell>
        <mxCell id="-kux7we6ycN59ArkVauI-8" value="app" style="shape=actor;whiteSpace=wrap;html=1;" vertex="1" parent="1">
          <mxGeometry x="100" y="160" width="40" height="60" as="geometry" />
        </mxCell>
      </root>
    </mxGraphModel>
  </diagram>
  <diagram id="eVGOrCz81mwNdSkWSltE" name="埋点处理方案">
    <mxGraphModel dx="1803" dy="1090" grid="1" gridSize="10" guides="1" tooltips="1" connect="1" arrows="1" fold="1" page="1" pageScale="1" pageWidth="827" pageHeight="1169" math="0" shadow="0">
      <root>
        <mxCell id="0" />
        <mxCell id="1" parent="0" />
        <mxCell id="IIUat3zzKJGHv7B_V3qo-1" value="Web SDK" style="rounded=0;whiteSpace=wrap;html=1;" parent="1" vertex="1">
          <mxGeometry x="140" y="80" width="120" height="60" as="geometry" />
        </mxCell>
        <mxCell id="IIUat3zzKJGHv7B_V3qo-8" style="edgeStyle=orthogonalEdgeStyle;rounded=0;orthogonalLoop=1;jettySize=auto;html=1;exitX=0.5;exitY=1;exitDx=0;exitDy=0;entryX=0.5;entryY=0;entryDx=0;entryDy=0;" parent="1" source="IIUat3zzKJGHv7B_V3qo-2" target="IIUat3zzKJGHv7B_V3qo-4" edge="1">
          <mxGeometry relative="1" as="geometry" />
        </mxCell>
        <mxCell id="IIUat3zzKJGHv7B_V3qo-2" value="&amp;nbsp;IOS SDK" style="rounded=0;whiteSpace=wrap;html=1;" parent="1" vertex="1">
          <mxGeometry x="330" y="80" width="120" height="60" as="geometry" />
        </mxCell>
        <mxCell id="IIUat3zzKJGHv7B_V3qo-3" value="&amp;nbsp;Android SDK" style="rounded=0;whiteSpace=wrap;html=1;" parent="1" vertex="1">
          <mxGeometry x="520" y="80" width="120" height="60" as="geometry" />
        </mxCell>
        <mxCell id="IIUat3zzKJGHv7B_V3qo-4" value="ds-event-server&amp;nbsp; &amp;nbsp;(golang异步API)" style="rounded=0;whiteSpace=wrap;html=1;" parent="1" vertex="1">
          <mxGeometry x="140" y="180" width="500" height="30" as="geometry" />
        </mxCell>
        <mxCell id="IIUat3zzKJGHv7B_V3qo-11" style="edgeStyle=orthogonalEdgeStyle;rounded=0;orthogonalLoop=1;jettySize=auto;html=1;exitX=0.5;exitY=0;exitDx=0;exitDy=0;entryX=0.5;entryY=1;entryDx=0;entryDy=0;entryPerimeter=0;" parent="1" source="IIUat3zzKJGHv7B_V3qo-5" target="IIUat3zzKJGHv7B_V3qo-14" edge="1">
          <mxGeometry relative="1" as="geometry">
            <mxPoint x="390" y="275" as="targetPoint" />
          </mxGeometry>
        </mxCell>
        <mxCell id="IIUat3zzKJGHv7B_V3qo-5" value="Hadoop 集群" style="rounded=0;whiteSpace=wrap;html=1;" parent="1" vertex="1">
          <mxGeometry x="141.25" y="330" width="492.5" height="60" as="geometry" />
        </mxCell>
        <mxCell id="IIUat3zzKJGHv7B_V3qo-7" style="edgeStyle=orthogonalEdgeStyle;rounded=0;orthogonalLoop=1;jettySize=auto;html=1;exitX=0.5;exitY=1;exitDx=0;exitDy=0;entryX=0.106;entryY=-0.033;entryDx=0;entryDy=0;entryPerimeter=0;" parent="1" source="IIUat3zzKJGHv7B_V3qo-1" target="IIUat3zzKJGHv7B_V3qo-4" edge="1">
          <mxGeometry relative="1" as="geometry" />
        </mxCell>
        <mxCell id="IIUat3zzKJGHv7B_V3qo-9" style="edgeStyle=orthogonalEdgeStyle;rounded=0;orthogonalLoop=1;jettySize=auto;html=1;exitX=0.5;exitY=1;exitDx=0;exitDy=0;entryX=0.888;entryY=-0.033;entryDx=0;entryDy=0;entryPerimeter=0;" parent="1" source="IIUat3zzKJGHv7B_V3qo-3" target="IIUat3zzKJGHv7B_V3qo-4" edge="1">
          <mxGeometry relative="1" as="geometry" />
        </mxCell>
        <mxCell id="IIUat3zzKJGHv7B_V3qo-10" style="edgeStyle=orthogonalEdgeStyle;rounded=0;orthogonalLoop=1;jettySize=auto;html=1;exitX=0.5;exitY=1;exitDx=0;exitDy=0;entryX=0.5;entryY=0;entryDx=0;entryDy=0;entryPerimeter=0;" parent="1" source="IIUat3zzKJGHv7B_V3qo-4" target="IIUat3zzKJGHv7B_V3qo-14" edge="1">
          <mxGeometry relative="1" as="geometry">
            <mxPoint x="390" y="245" as="targetPoint" />
          </mxGeometry>
        </mxCell>
        <mxCell id="IIUat3zzKJGHv7B_V3qo-12" value="ClickHouse 集群" style="rounded=0;whiteSpace=wrap;html=1;" parent="1" vertex="1">
          <mxGeometry x="141.88" y="510" width="496.25" height="50" as="geometry" />
        </mxCell>
        <mxCell id="IIUat3zzKJGHv7B_V3qo-14" value="kafka 集群" style="strokeWidth=2;html=1;shape=mxgraph.flowchart.direct_data;whiteSpace=wrap;" parent="1" vertex="1">
          <mxGeometry x="315" y="240" width="145" height="30" as="geometry" />
        </mxCell>
        <mxCell id="IIUat3zzKJGHv7B_V3qo-18" style="edgeStyle=orthogonalEdgeStyle;rounded=0;orthogonalLoop=1;jettySize=auto;html=1;exitX=0.5;exitY=1;exitDx=0;exitDy=0;entryX=0.5;entryY=0;entryDx=0;entryDy=0;" parent="1" source="IIUat3zzKJGHv7B_V3qo-17" target="IIUat3zzKJGHv7B_V3qo-12" edge="1">
          <mxGeometry relative="1" as="geometry" />
        </mxCell>
        <mxCell id="IIUat3zzKJGHv7B_V3qo-19" style="edgeStyle=orthogonalEdgeStyle;rounded=0;orthogonalLoop=1;jettySize=auto;html=1;exitX=0.5;exitY=0;exitDx=0;exitDy=0;entryX=0.5;entryY=1;entryDx=0;entryDy=0;" parent="1" source="IIUat3zzKJGHv7B_V3qo-17" target="IIUat3zzKJGHv7B_V3qo-5" edge="1">
          <mxGeometry relative="1" as="geometry">
            <mxPoint x="390" y="400" as="targetPoint" />
          </mxGeometry>
        </mxCell>
        <mxCell id="IIUat3zzKJGHv7B_V3qo-17" value="DolphinScheduler (定时跑数据)" style="rounded=0;whiteSpace=wrap;html=1;" parent="1" vertex="1">
          <mxGeometry x="140" y="420" width="500" height="50" as="geometry" />
        </mxCell>
      </root>
    </mxGraphModel>
  </diagram>
</mxfile>
